<svg id="2ed88509-4c16-45f2-8f4a-47e0d9d36f17" data-name="Слой 1" xmlns="http://www.w3.org/2000/svg" xmlns:xlink="http://www.w3.org/1999/xlink" width="230" height="55" viewBox="0 0 230 55"><defs><linearGradient id="8a80b419-b2e2-4ec7-823c-18d539288f7d" x1="27.07" y1="364.26" x2="27.07" y2="325.53" gradientTransform="translate(0 -320)" gradientUnits="userSpaceOnUse"><stop offset="0" stop-color="#0056b3"/><stop offset="0.25" stop-color="#0056b3"/><stop offset="0.7" stop-color="#0088fb"/><stop offset="1" stop-color="#00acff"/></linearGradient></defs><title>b</title><rect width="230" height="55" rx="5" ry="5" fill="#0088fb"/><rect x="2.5" y="2.5" width="50" height="50" rx="3" ry="3" fill="#fff"/><polygon points="16.95 33.27 26.96 27.6 26.96 16.27 16.95 21.94 16.95 33.27" fill="#0064c8"/><polygon points="26.96 27.6 26.96 16.27 36.91 21.94 36.91 33.27 26.96 27.6" fill="#0064c8"/><path d="M46.38,16.55h0c-.76-1.24-2-1.66-3.18-2.42L30.7,7C27.1,4.94,27.1,4.87,23.3,7L17,10.54,37,21.8V33.13L27,38.79l-9.95-5.66V21.8L7.14,27.46v7.12c0,4.28.07,4.21,3.66,6.29L23.37,48C27,50.06,27,50.12,30.77,48l12.57-7.12c3.59-2.07,3.66-2,3.66-6.29V20.35C46.86,19.11,47.07,17.79,46.38,16.55Z" fill="url(#8a80b419-b2e2-4ec7-823c-18d539288f7d)"/><path d="M7,27.6v7.12C7,39,7.07,38.93,10.66,41l12.57,7.12c3.59,2.07,3.59,2.14,7.39,0L27,38.93,17,33.27V21.94Z" fill="#0056b3"/><path d="M46.38,16.55h0c-.76-1.24-2-1.66-3.18-2.42L30.7,7C27.1,4.94,27.1,4.87,23.3,7L17,10.61,37,21.87V33.2L27,38.86,17.09,33.2V21.87L7.14,27.53v7.12c0,4.28.07,4.21,3.66,6.29l12.57,7.12c3.59,2.07,3.59,2.14,7.39,0l12.57-7.12c3.59-2,3.66-2,3.66-6.29V20.42C46.86,19.11,47.07,17.79,46.38,16.55Z" fill="#0088fb" opacity="0.3" style="isolation:isolate"/><polygon points="16.95 33.27 26.96 27.6 26.96 16.27 16.95 21.94 16.95 33.27" fill="#0064c8"/><polygon points="26.96 27.6 26.96 16.27 36.91 21.94 36.91 33.27 26.96 27.6" fill="#0064c8"/><path d="M46.38,16.55h0c-.76-1.24-2-1.66-3.18-2.42L30.7,7C27.1,4.94,27.1,4.87,23.3,7L17,10.54,37,21.8V33.13L27,38.79l-9.95-5.66V21.8L7.14,27.46v7.12c0,4.28.07,4.21,3.66,6.29L23.37,48C27,50.06,27,50.12,30.77,48l12.57-7.12c3.59-2.07,3.66-2,3.66-6.29V20.35C46.86,19.11,47.07,17.79,46.38,16.55Z" fill="url(#8a80b419-b2e2-4ec7-823c-18d539288f7d)"/><path d="M7,27.6v7.12C7,39,7.07,38.93,10.66,41l12.57,7.12c3.59,2.07,3.59,2.14,7.39,0L27,38.93,17,33.27V21.94Z" fill="#0056b3"/><path d="M46.38,16.55h0c-.76-1.24-2-1.66-3.18-2.42L30.7,7C27.1,4.94,27.1,4.87,23.3,7L17,10.61,37,21.87V33.2L27,38.86,17.09,33.2V21.87L7.14,27.53v7.12c0,4.28.07,4.21,3.66,6.29l12.57,7.12c3.59,2.07,3.59,2.14,7.39,0l12.57-7.12c3.59-2,3.66-2,3.66-6.29V20.42C46.86,19.11,47.07,17.79,46.38,16.55Z" fill="#0088fb" opacity="0.3" style="isolation:isolate"/><path d="M77.37,27.85a5.34,5.34,0,0,1-1.47,4.05,5.91,5.91,0,0,1-4.24,1.4h-3V22.6H72A5.48,5.48,0,0,1,76,24,5.15,5.15,0,0,1,77.37,27.85Zm-1.85.06q0-3.85-3.6-3.85H70.41v7.77h1.25Q75.53,31.84,75.53,27.91Z" fill="#fff"/><path d="M85.73,33.31H79.67V22.6h6.06v1.48H81.42V27h4v1.46h-4v3.36h4.31Z" fill="#fff"/><path d="M95.13,25.84A3.12,3.12,0,0,1,94,28.41a4.84,4.84,0,0,1-3.13.89H89.79v4H88V22.6h3.08a4.67,4.67,0,0,1,3,.82A3,3,0,0,1,95.13,25.84Zm-5.34,2h.93a3.33,3.33,0,0,0,2-.47,1.71,1.71,0,0,0,.63-1.46,1.66,1.66,0,0,0-.56-1.38A2.79,2.79,0,0,0,91,24.07H89.79Z" fill="#fff"/><path d="M97.27,33.31V22.6H99v9.21h4.53v1.5Z" fill="#fff"/><path d="M114.91,27.94A5.86,5.86,0,0,1,113.6,32a5.49,5.49,0,0,1-7.43,0,5.89,5.89,0,0,1-1.3-4.09,5.8,5.8,0,0,1,1.31-4.07,4.82,4.82,0,0,1,3.73-1.42,4.72,4.72,0,0,1,3.69,1.44A5.85,5.85,0,0,1,114.91,27.94Zm-8.17,0a4.8,4.8,0,0,0,.8,3,3.25,3.25,0,0,0,4.72,0,4.81,4.81,0,0,0,.79-3,4.82,4.82,0,0,0-.79-3,2.78,2.78,0,0,0-2.35-1,2.84,2.84,0,0,0-2.38,1A4.75,4.75,0,0,0,106.73,27.94Z" fill="#fff"/><path d="M120.23,27.49l2.53-4.89h1.9l-3.57,6.56v4.15h-1.76V29.22l-3.55-6.61h1.9Z" fill="#fff"/><path d="M133.68,33.31h-1.75V24.1h-3.15V22.6h8v1.5h-3.15Z" fill="#fff"/><path d="M148,27.94A5.86,5.86,0,0,1,146.67,32a5.49,5.49,0,0,1-7.43,0,5.89,5.89,0,0,1-1.3-4.09,5.8,5.8,0,0,1,1.31-4.07A4.82,4.82,0,0,1,143,22.43a4.72,4.72,0,0,1,3.69,1.44A5.85,5.85,0,0,1,148,27.94Zm-8.17,0a4.8,4.8,0,0,0,.8,3,3.25,3.25,0,0,0,4.72,0,4.81,4.81,0,0,0,.79-3,4.82,4.82,0,0,0-.79-3,2.78,2.78,0,0,0-2.35-1,2.84,2.84,0,0,0-2.38,1A4.75,4.75,0,0,0,139.8,27.94Z" fill="#fff"/><path d="M152.82,36.3a3.42,3.42,0,0,1-1.2-.18V34.64a4.5,4.5,0,0,0,1.07.15q1.44,0,1.44-1.82V22.6h1.76V32.92a3.63,3.63,0,0,1-.78,2.51A2.91,2.91,0,0,1,152.82,36.3Z" fill="#fff"/><path d="M164.71,33.31h-6.06V22.6h6.06v1.48h-4.31V27h4v1.46h-4v3.36h4.31Z" fill="#fff"/><path d="M167,33.31V22.6h1.75v9.21h4.53v1.5Z" fill="#fff"/><path d="M181.8,33.31l-1.07-3h-4.09l-1,3h-1.85l4-10.75h1.9l4,10.75Zm-1.53-4.48-1-2.92q-.11-.29-.3-.92t-.27-.92a16.41,16.41,0,0,1-.58,2l-1,2.79Z" fill="#fff"/><path d="M191.25,30.4a2.69,2.69,0,0,1-1,2.24,4.49,4.49,0,0,1-2.85.81,6.8,6.8,0,0,1-3-.56V31.24a8.07,8.07,0,0,0,1.56.54,6.59,6.59,0,0,0,1.53.2,2.44,2.44,0,0,0,1.53-.4,1.29,1.29,0,0,0,.49-1.06,1.33,1.33,0,0,0-.45-1,6.84,6.84,0,0,0-1.87-1,5,5,0,0,1-2.07-1.35,2.87,2.87,0,0,1-.6-1.83,2.56,2.56,0,0,1,1-2.11,4,4,0,0,1,2.56-.77,7.51,7.51,0,0,1,3.06.67l-.56,1.43A6.69,6.69,0,0,0,188,24a2,2,0,0,0-1.29.37,1.21,1.21,0,0,0-.44,1,1.37,1.37,0,0,0,.18.71,1.79,1.79,0,0,0,.58.56,9.79,9.79,0,0,0,1.45.7,7.93,7.93,0,0,1,1.73.92,2.69,2.69,0,0,1,.81,1A2.89,2.89,0,0,1,191.25,30.4Z" fill="#fff"/><path d="M197,33.31h-1.75V24.1h-3.15V22.6h8v1.5H197Z" fill="#fff"/><path d="M201.81,33.31V22.6h1.75V33.31Z" fill="#fff"/><path d="M210.94,24A2.89,2.89,0,0,0,208.57,25a4.57,4.57,0,0,0-.86,3,4.6,4.6,0,0,0,.83,3,2.94,2.94,0,0,0,2.41,1,6.29,6.29,0,0,0,1.32-.14q.64-.13,1.33-.35V33a8,8,0,0,1-2.86.48A4.56,4.56,0,0,1,207.12,32,6,6,0,0,1,205.86,28a6.58,6.58,0,0,1,.61-2.92,4.36,4.36,0,0,1,1.77-1.92,5.35,5.35,0,0,1,2.72-.67,6.74,6.74,0,0,1,3,.69l-.63,1.46a9.43,9.43,0,0,0-1.15-.45A4.13,4.13,0,0,0,210.94,24Z" fill="#fff"/></svg>